<?xml version="1.0" standalone="no"?>
<!DOCTYPE svg PUBLIC "-//W3C//DTD SVG 20010904//EN"
 "http://www.w3.org/TR/2001/REC-SVG-20010904/DTD/svg10.dtd">
<svg version="1.0" xmlns="http://www.w3.org/2000/svg"
 width="1280.000000pt" height="640.000000pt" viewBox="0 0 1280.000000 640.000000"
 preserveAspectRatio="xMidYMid meet">
<metadata>
Created by potrace 1.15, written by Peter Selinger 2001-2017
</metadata>
<g transform="translate(0.000000,640.000000) scale(0.100000,-0.100000)"
fill="#000000" stroke="none">
<path d="M12095 4810 c-93 -52 -200 -91 -295 -109 -76 -15 -290 -29 -542 -36
-117 -3 -319 -12 -448 -20 -233 -14 -389 -22 -1046 -50 -314 -14 -351 -17
-465 -44 -276 -66 -588 -121 -682 -121 -51 0 -112 -5 -136 -11 -24 -5 -137
-21 -250 -34 -126 -15 -235 -34 -281 -48 -41 -13 -120 -30 -175 -37 -55 -7
-201 -34 -325 -60 -124 -27 -245 -51 -270 -55 -25 -4 -112 -22 -195 -40 -367
-83 -525 -114 -600 -120 -44 -4 -154 -15 -245 -26 -91 -11 -255 -24 -365 -29
-178 -9 -278 -17 -383 -34 -18 -3 -115 -24 -215 -47 -691 -157 -635 -147 -874
-156 -170 -6 -184 -5 -235 15 -41 17 -90 24 -216 32 -89 5 -182 7 -206 4 -34
-5 -86 4 -223 39 -152 39 -212 49 -413 68 -129 12 -290 24 -358 26 -110 5
-130 3 -185 -18 -104 -38 -266 -123 -382 -200 -108 -72 -111 -73 -190 -80
-167 -13 -325 -30 -450 -50 -71 -11 -145 -19 -164 -19 -44 0 -135 -24 -205
-55 -59 -26 -366 -249 -366 -265 0 -17 -254 -271 -315 -314 -74 -54 -198 -128
-250 -152 -48 -22 -125 -92 -125 -114 1 -33 39 -97 75 -124 20 -16 66 -39 101
-50 l64 -22 -41 -39 c-22 -22 -47 -55 -55 -74 -8 -18 -48 -68 -90 -111 -85
-87 -86 -95 -20 -152 31 -27 31 -27 205 -27 153 -1 179 1 219 19 46 21 46 21
62 1 32 -41 191 -54 322 -26 101 21 228 88 308 162 70 65 80 66 80 9 0 -35 71
-45 215 -30 130 14 168 32 270 124 92 83 214 170 247 177 53 10 211 88 237
117 22 24 31 26 100 26 64 0 80 4 112 26 l37 25 40 -26 c22 -14 61 -57 87 -95
27 -39 52 -70 57 -70 18 0 5 27 -46 96 -66 87 -113 116 -281 174 -158 55 -615
177 -713 191 -47 7 -134 9 -225 5 l-148 -7 -97 -49 c-53 -28 -119 -66 -145
-85 -27 -19 -63 -39 -82 -44 -36 -10 -96 -48 -190 -121 -33 -26 -109 -73 -169
-105 l-110 -59 -115 0 c-99 0 -123 3 -161 21 -61 30 -95 61 -113 104 l-15 37
41 40 c23 23 56 47 72 54 42 18 200 114 260 159 28 20 120 109 205 197 107
109 196 190 285 258 154 116 230 150 380 169 55 7 154 20 220 29 108 13 227
27 370 42 l50 6 -24 -20 c-36 -29 -8 -38 32 -10 28 20 47 24 150 28 68 3 117
9 117 15 0 6 -38 9 -98 7 l-97 -3 108 71 c112 73 242 141 337 178 79 29 196
35 363 17 78 -8 214 -21 302 -30 113 -11 203 -27 310 -54 145 -38 157 -39 364
-45 200 -5 217 -7 279 -32 64 -26 71 -26 197 -20 231 12 304 24 670 106 198
44 376 85 395 91 65 18 354 49 470 49 63 0 192 9 285 20 94 11 223 25 288 30
65 6 153 19 195 29 42 11 136 31 207 46 72 15 167 35 213 46 45 11 140 31 210
44 70 13 210 42 312 63 102 21 226 44 275 51 50 7 137 25 195 41 58 16 159 34
225 40 66 6 177 20 247 31 70 10 160 19 202 19 74 0 378 55 661 119 113 26
164 31 380 40 138 6 408 18 600 26 193 9 440 22 550 30 110 8 256 15 325 15
201 0 539 20 620 36 88 18 187 49 250 77 71 33 160 87 160 97 0 15 -9 12 -105
-40z m-10543 -1876 c66 -7 67 -7 53 -28 -59 -85 -196 -181 -465 -326 -153 -82
-226 -135 -340 -244 -96 -92 -272 -220 -344 -250 -32 -13 -67 -16 -204 -12
-163 4 -164 4 -193 32 -16 15 -29 32 -29 38 0 5 36 47 80 92 44 45 80 87 80
94 0 7 20 36 45 65 24 29 41 56 37 60 -4 5 0 6 9 2 9 -3 54 -1 100 5 73 8 98
17 189 65 58 30 128 73 155 95 91 71 159 115 207 131 26 8 71 33 100 55 95 72
191 113 282 121 110 11 159 12 238 5z m331 -70 c109 -28 174 -51 169 -56 -5
-5 -54 -33 -109 -61 -126 -65 -238 -143 -328 -228 -76 -72 -153 -109 -227
-109 -38 0 -47 -6 -166 -121 -109 -106 -137 -127 -216 -165 -172 -83 -375 -99
-448 -36 -16 14 -12 19 55 64 93 64 139 102 240 197 95 90 188 154 342 236
205 108 340 200 398 271 62 76 40 75 290 8z m405 -117 l153 -52 -28 -22 c-24
-20 -40 -23 -110 -23 -78 0 -83 -1 -100 -26 -19 -30 -190 -114 -230 -114 -25
0 -128 -74 -263 -190 -104 -89 -123 -97 -239 -110 -58 -6 -126 -8 -152 -5 -47
7 -47 7 -52 48 -4 38 0 46 36 84 33 34 48 43 90 48 101 14 158 42 227 109 36
35 94 83 130 106 36 24 74 51 85 61 11 10 70 43 130 74 61 31 114 60 120 66
11 11 7 12 203 -54z"/>
<path d="M12675 2804 c-285 -170 -708 -270 -1340 -315 -238 -17 -1944 -18
-2380 -1 -181 6 -519 19 -750 28 -231 8 -512 24 -625 34 -308 29 -566 49 -860
65 -322 18 -545 33 -665 45 -154 16 -334 12 -427 -9 -46 -10 -117 -22 -158
-26 -224 -20 -360 -45 -452 -81 -190 -75 -599 -285 -888 -456 -41 -25 -115
-63 -165 -85 -89 -40 -126 -48 -365 -79 -30 -4 -217 -8 -415 -9 -405 -1 -428
-4 -575 -73 -131 -61 -321 -138 -475 -194 -105 -37 -173 -55 -270 -69 -297
-43 -437 -15 -512 104 -20 32 -25 55 -30 150 l-5 112 28 26 c71 65 511 235
644 249 85 9 182 30 285 60 38 11 87 20 109 20 46 0 124 40 221 113 70 53 98
85 110 125 10 35 -13 26 -29 -12 -9 -22 -40 -53 -88 -89 -115 -85 -166 -111
-233 -118 -33 -3 -114 -20 -180 -38 -66 -17 -151 -34 -190 -37 -41 -3 -109
-19 -165 -39 -52 -18 -119 -41 -149 -50 -99 -32 -316 -136 -349 -168 l-32 -31
0 -113 c0 -107 2 -116 30 -166 58 -103 178 -154 340 -143 164 10 338 42 445
81 154 56 318 123 450 183 66 30 143 61 170 69 86 24 278 34 535 27 230 -6
257 -4 432 20 172 24 193 30 281 70 52 24 112 55 133 69 106 66 577 319 714
382 261 122 288 129 580 160 74 8 168 21 208 30 95 20 353 20 584 0 95 -8 301
-21 458 -30 301 -16 527 -33 880 -65 118 -11 334 -24 480 -30 146 -6 294 -13
330 -15 366 -29 2716 -41 3035 -16 479 38 803 99 1070 203 124 49 335 162 335
180 0 16 -26 5 -115 -48z"/>
<path d="M1618 2001 c-61 -13 -87 -24 -122 -53 -42 -36 -45 -41 -51 -103 -7
-58 -5 -69 19 -109 34 -59 84 -77 176 -65 58 8 69 13 103 49 l37 39 0 110 0
109 -34 21 c-18 12 -37 20 -42 20 -5 -1 -44 -9 -86 -18z m120 -27 c20 -14 22
-23 22 -107 -1 -89 -2 -93 -33 -129 -29 -34 -38 -39 -93 -44 -119 -13 -164 26
-164 141 0 62 1 64 42 97 61 48 184 72 226 42z"/>
</g>
</svg>
